<?xml version="1.0" standalone="no"?>
<!DOCTYPE svg PUBLIC "-//W3C//DTD SVG 20010904//EN"
 "http://www.w3.org/TR/2001/REC-SVG-20010904/DTD/svg10.dtd">
<svg version="1.0" xmlns="http://www.w3.org/2000/svg"
 width="512.000000pt" height="512.000000pt" viewBox="0 0 512.000000 512.000000"
 preserveAspectRatio="xMidYMid meet">

<g transform="translate(0.000000,512.000000) scale(0.100000,-0.100000)"
fill="#000000" stroke="none">
<path d="M448 4469 c-158 -23 -314 -136 -384 -278 -63 -130 -59 -8 -62 -1576
-2 -944 1 -1457 7 -1510 31 -234 222 -425 458 -456 44 -6 136 -9 202 -7 116 3
122 4 148 31 l28 27 5 1255 5 1255 829 -585 c456 -322 840 -588 853 -591 12
-4 34 -3 47 0 13 3 397 269 852 591 l829 584 5 -1254 5 -1255 28 -27 c26 -27
32 -28 148 -31 177 -5 267 9 367 59 156 76 269 229 292 394 13 96 13 2836 0
2930 -26 178 -155 341 -327 413 -68 29 -191 46 -227 33 -14 -6 -469 -337
-1011 -736 l-985 -726 -985 726 c-542 399 -996 730 -1011 735 -28 11 -35 11
-116 -1z"/>
</g>
</svg>
